<svg width="60" height="60" viewBox="0 0 60 60" fill="none" xmlns="http://www.w3.org/2000/svg">
<rect opacity="0.1" width="60" height="60" rx="30" fill="#FF8F6B"/>
<path fill-rule="evenodd" clip-rule="evenodd" d="M28.7048 21.519C28.0344 21.519 27.4641 21.9849 27.3041 22.6127H32.6868C32.5267 21.9849 31.9564 21.519 31.2861 21.519H28.7048ZM34.2071 22.6126H36.1881C38.2891 22.6126 40 24.3443 40 26.4709C40 26.4709 39.94 27.3711 39.92 28.6248C39.918 28.724 39.8699 28.8212 39.7909 28.88C39.3097 29.2354 38.8694 29.5291 38.8294 29.5493C37.1686 30.6632 35.2386 31.447 33.1826 31.8369C33.0485 31.8632 32.9165 31.7934 32.8484 31.6739C32.2721 30.6754 31.1956 30.0253 29.995 30.0253C28.8024 30.0253 27.7159 30.6683 27.1226 31.6678C27.0535 31.7853 26.9235 31.8531 26.7904 31.8278C24.7514 31.4369 22.8214 30.6541 21.1706 29.5594L20.2101 28.8911C20.1301 28.8405 20.08 28.7493 20.08 28.6481C20.05 28.1316 20 26.4709 20 26.4709C20 24.3443 21.7109 22.6126 23.8119 22.6126H25.7829C25.973 21.1443 27.2036 20 28.7044 20H31.2856C32.7864 20 34.017 21.1443 34.2071 22.6126ZM39.6605 30.8153L39.6205 30.8356C37.5995 32.1925 35.1683 33.0938 32.617 33.4685C32.2568 33.5191 31.8967 33.2862 31.7966 32.9216C31.5765 32.0913 30.8661 31.5444 30.0157 31.5444H30.0057H29.9857C29.1353 31.5444 28.4249 32.0913 28.2048 32.9216C28.1048 33.2862 27.7446 33.5191 27.3844 33.4685C24.8331 33.0938 22.4019 32.1925 20.3809 30.8356C20.3709 30.8254 20.2708 30.7647 20.1908 30.8153C20.1008 30.8659 20.1008 30.9875 20.1008 30.9875L20.1708 36.152C20.1708 38.2786 21.8716 40.0001 23.9727 40.0001H36.0187C38.1198 40.0001 39.8206 38.2786 39.8206 36.152L39.9007 30.9875C39.9007 30.9875 39.9007 30.8659 39.8106 30.8153C39.7606 30.7849 39.7006 30.7951 39.6605 30.8153ZM30.7457 35.0585C30.7457 35.4838 30.4155 35.818 29.9953 35.818C29.5851 35.818 29.2449 35.4838 29.2449 35.0585V33.7522C29.2449 33.337 29.5851 32.9927 29.9953 32.9927C30.4155 32.9927 30.7457 33.337 30.7457 33.7522V35.0585Z" fill="#FF8F6B"/>
</svg>
