<svg width="34" height="35" viewBox="0 0 34 35" fill="none" xmlns="http://www.w3.org/2000/svg">
<circle opacity="0.05" cx="17" cy="17.2676" r="17" fill="black"/>
<path opacity="0.8" d="M17.9161 17.2675L21.8099 21.1615C22.0634 21.4148 22.0634 21.8243 21.8099 22.0776C21.5567 22.3309 21.1471 22.3309 20.8939 22.0776L16.9999 18.1836L13.1061 22.0776C12.8527 22.3309 12.4433 22.3309 12.1901 22.0776C11.9366 21.8243 11.9366 21.4148 12.1901 21.1615L16.0839 17.2675L12.1901 13.3735C11.9366 13.1202 11.9366 12.7107 12.1901 12.4574C12.3163 12.331 12.4822 12.2676 12.6481 12.2676C12.8139 12.2676 12.9798 12.331 13.1061 12.4574L16.9999 16.3514L20.8939 12.4574C21.0202 12.331 21.1861 12.2676 21.3519 12.2676C21.5178 12.2676 21.6836 12.331 21.8099 12.4574C22.0634 12.7107 22.0634 13.1202 21.8099 13.3735L17.9161 17.2675Z" fill="black"/>
</svg>
