<svg width="8" height="9" viewBox="0 0 8 9" fill="none" xmlns="http://www.w3.org/2000/svg">
<path opacity="0.4" d="M3.246 8.60795C3.20733 8.56275 3.042 8.39207 2.906 8.23308C2.05067 7.30098 0.650667 4.86942 0.223333 3.59674C0.154667 3.40347 0.00933333 2.91482 0 2.65373C0 2.40356 0.048 2.16508 0.145333 1.93751C0.281333 1.65383 0.495333 1.42626 0.748 1.30157C0.923333 1.22129 1.448 1.0966 1.45733 1.0966C2.03133 0.971903 2.964 0.90332 3.99467 0.90332C4.97667 0.90332 5.87133 0.971903 6.454 1.074C6.46333 1.08569 7.11533 1.21038 7.33867 1.34677C7.74667 1.59694 8 2.08559 8 2.60853V2.65373C7.99 2.99431 7.73667 3.71053 7.72733 3.71053C7.29933 4.91462 5.968 7.29007 5.08333 8.24477C5.08333 8.24477 4.856 8.51365 4.714 8.63055C4.51 8.81292 4.25733 8.90332 4.00467 8.90332C3.72267 8.90332 3.46 8.80123 3.246 8.60795Z" fill="black"/>
</svg>
