<svg width="20" height="22" viewBox="0 0 20 22" fill="none" xmlns="http://www.w3.org/2000/svg">
<path fill-rule="evenodd" clip-rule="evenodd" d="M2.54 0.916992H5.92C7.33 0.916992 8.46 2.07655 8.46 3.49928V6.93662C8.46 8.36843 7.33 9.51791 5.92 9.51791H2.54C1.14 9.51791 0 8.36843 0 6.93662V3.49928C0 2.07655 1.14 0.916992 2.54 0.916992ZM2.54 12.4821H5.92C7.33 12.4821 8.46 13.6326 8.46 15.0644V18.5017C8.46 19.9234 7.33 21.083 5.92 21.083H2.54C1.14 21.083 0 19.9234 0 18.5017V15.0644C0 13.6326 1.14 12.4821 2.54 12.4821ZM17.4601 0.916992H14.0801C12.6701 0.916992 11.5401 2.07655 11.5401 3.49928V6.93662C11.5401 8.36843 12.6701 9.51791 14.0801 9.51791H17.4601C18.8601 9.51791 20.0001 8.36843 20.0001 6.93662V3.49928C20.0001 2.07655 18.8601 0.916992 17.4601 0.916992ZM14.08 12.4821H17.46C18.86 12.4821 20 13.6326 20 15.0644V18.5017C20 19.9234 18.86 21.083 17.46 21.083H14.08C12.67 21.083 11.54 19.9234 11.54 18.5017V15.0644C11.54 13.6326 12.67 12.4821 14.08 12.4821Z" fill="white"/>
</svg>
