<svg width="30" height="30" viewBox="0 0 30 30" fill="none" xmlns="http://www.w3.org/2000/svg">
<circle opacity="0.05" cx="15" cy="15" r="15" fill="#E71D36"/>
<path fill-rule="evenodd" clip-rule="evenodd" d="M19.0382 11.6575C19.2191 11.6575 19.3696 11.8226 19.3696 12.0327V12.2269C19.3696 12.4318 19.2191 12.602 19.0382 12.602H11.3319C11.1506 12.602 11 12.4318 11 12.2269V12.0327C11 11.8226 11.1506 11.6575 11.3319 11.6575H12.6877C12.9631 11.6575 13.2028 11.4423 13.2647 11.1387L13.3357 10.7902C13.446 10.3154 13.8092 10 14.2248 10H16.1449C16.5559 10 16.9231 10.3154 17.0294 10.7651L17.1054 11.1382C17.1669 11.4423 17.4066 11.6575 17.6824 11.6575H19.0382ZM18.3493 18.7573C18.4909 17.3073 18.7387 13.8624 18.7387 13.8276C18.7477 13.7224 18.7165 13.6227 18.6546 13.5425C18.5881 13.4673 18.504 13.4229 18.4113 13.4229H11.9617C11.8686 13.4229 11.7799 13.4673 11.7184 13.5425C11.656 13.6227 11.6253 13.7224 11.6298 13.8276C11.6306 13.834 11.6395 13.9554 11.6544 14.1582C11.7204 15.0595 11.9044 17.5695 12.0232 18.7573C12.1073 19.6323 12.6297 20.1822 13.3862 20.2022C13.97 20.217 14.5715 20.2221 15.1865 20.2221C15.7658 20.2221 16.3541 20.217 16.956 20.2022C17.7388 20.1873 18.2607 19.6471 18.3493 18.7573Z" fill="#E71D36"/>
</svg>
