<svg width="30" height="30" viewBox="0 0 30 30" fill="none" xmlns="http://www.w3.org/2000/svg">
<circle opacity="0.1" cx="15" cy="15" r="15" fill="#605BFF"/>
<path fill-rule="evenodd" clip-rule="evenodd" d="M13.8338 18.568L17.7389 13.518C17.9511 13.2456 18.0266 12.9308 17.9558 12.6102C17.8945 12.3188 17.7153 12.0417 17.4465 11.8315L16.7909 11.3107C16.2203 10.8568 15.5128 10.9046 15.1072 11.4254L14.6686 11.9944C14.612 12.0656 14.6262 12.1707 14.6969 12.228C14.6969 12.228 15.8052 13.1166 15.8288 13.1358C15.9043 13.2074 15.9609 13.303 15.975 13.4176C15.9986 13.6422 15.843 13.8524 15.6119 13.8811C15.5034 13.8954 15.3996 13.862 15.3242 13.7999L14.1593 12.873C14.1027 12.8305 14.0178 12.8395 13.9706 12.8969L11.2022 16.4801C11.0229 16.7047 10.9616 16.9961 11.0229 17.278L11.3767 18.8116C11.3955 18.8928 11.4663 18.9502 11.5512 18.9502L13.1075 18.9311C13.3905 18.9263 13.6546 18.7973 13.8338 18.568ZM16.013 18.0903H18.5508C18.7984 18.0903 18.9998 18.2943 18.9998 18.5452C18.9998 18.7965 18.7984 19 18.5508 19H16.013C15.7654 19 15.564 18.7965 15.564 18.5452C15.564 18.2943 15.7654 18.0903 16.013 18.0903Z" fill="#605BFF"/>
</svg>
