<svg width="61" height="60" viewBox="0 0 61 60" fill="none" xmlns="http://www.w3.org/2000/svg">
<rect opacity="0.1" x="0.389095" width="60" height="60" rx="30" fill="#5B93FF"/>
<path fill-rule="evenodd" clip-rule="evenodd" d="M34.2383 20.5006C34.8693 20.5006 35.4993 20.5896 36.0983 20.7906C39.7893 21.9906 41.1193 26.0406 40.0083 29.5806C39.3783 31.3896 38.3483 33.0406 36.9993 34.3896C35.0683 36.2596 32.9493 37.9196 30.6683 39.3496L30.4183 39.5006L30.1583 39.3396C27.8693 37.9196 25.7383 36.2596 23.7893 34.3796C22.4493 33.0306 21.4183 31.3896 20.7783 29.5806C19.6483 26.0406 20.9783 21.9906 24.7093 20.7696C24.9993 20.6696 25.2983 20.5996 25.5983 20.5606H25.7183C25.9993 20.5196 26.2783 20.5006 26.5583 20.5006H26.6683C27.2983 20.5196 27.9083 20.6296 28.4993 20.8306H28.5583C28.5983 20.8496 28.6283 20.8706 28.6483 20.8896C28.8693 20.9606 29.0783 21.0406 29.2783 21.1506L29.6583 21.3206C29.7502 21.3696 29.8532 21.4444 29.9423 21.5091C29.9987 21.5501 30.0495 21.587 30.0883 21.6106C30.1047 21.6203 30.1212 21.63 30.138 21.6397C30.2237 21.6898 30.313 21.7419 30.3883 21.7996C31.4993 20.9506 32.8483 20.4906 34.2383 20.5006ZM36.8983 27.7006C37.3083 27.6896 37.6583 27.3606 37.6883 26.9396V26.8206C37.7183 25.4196 36.8693 24.1506 35.5783 23.6606C35.1683 23.5196 34.7183 23.7406 34.5683 24.1606C34.4283 24.5806 34.6483 25.0406 35.0683 25.1896C35.7093 25.4296 36.1383 26.0606 36.1383 26.7596V26.7906C36.1193 27.0196 36.1883 27.2406 36.3283 27.4106C36.4683 27.5806 36.6783 27.6796 36.8983 27.7006Z" fill="#5B93FF"/>
</svg>
