<svg width="133" height="42" viewBox="0 0 133 42" fill="none" xmlns="http://www.w3.org/2000/svg">
<path fill-rule="evenodd" clip-rule="evenodd" d="M27.05 19.5998C28.7897 19.5998 30.2 18.1895 30.2 16.4498C30.2 14.7101 28.7897 13.2998 27.05 13.2998C25.3103 13.2998 23.9 14.7101 23.9 16.4498C23.9 18.1895 25.3103 19.5998 27.05 19.5998Z" fill="#605BFF"/>
<path d="M29.5586 25.4674L35.4035 19.6225C35.4035 15.6145 34.4015 11.7736 32.5646 8.43359L18.9542 21.0419V42.0002H21.5427C30.6441 42.0002 38.0755 34.6523 38.0755 25.4674H29.5586Z" fill="white"/>
<path d="M8.5169 16.5328L2.67197 22.3777C2.67197 26.3857 3.67396 30.2266 5.51093 33.5666L19.1213 20.9582V0H16.5328C7.43141 0 0 7.34791 0 16.5328H8.5169Z" fill="white"/>
<path d="M58.312 29C57.88 29 57.544 28.888 57.304 28.664C57.08 28.424 56.968 28.088 56.968 27.656V13.424C56.968 12.992 57.08 12.664 57.304 12.44C57.544 12.2 57.88 12.08 58.312 12.08H62.944C65.728 12.08 67.872 12.808 69.376 14.264C70.896 15.704 71.656 17.792 71.656 20.528C71.656 21.888 71.464 23.096 71.08 24.152C70.696 25.208 70.128 26.096 69.376 26.816C68.64 27.52 67.736 28.064 66.664 28.448C65.592 28.816 64.352 29 62.944 29H58.312ZM59.464 26.912H62.8C63.856 26.912 64.768 26.784 65.536 26.528C66.32 26.256 66.976 25.856 67.504 25.328C68.032 24.8 68.424 24.136 68.68 23.336C68.936 22.536 69.064 21.6 69.064 20.528C69.064 18.4 68.536 16.808 67.48 15.752C66.44 14.696 64.88 14.168 62.8 14.168H59.464V26.912ZM78.4714 29.216C77.6554 29.216 76.9194 29.056 76.2634 28.736C75.6234 28.416 75.1194 27.984 74.7514 27.44C74.3834 26.896 74.1994 26.28 74.1994 25.592C74.1994 24.728 74.4154 24.048 74.8474 23.552C75.2954 23.04 76.0234 22.68 77.0314 22.472C78.0554 22.248 79.4314 22.136 81.1594 22.136H82.2874V23.624H81.1834C80.0314 23.624 79.1194 23.68 78.4474 23.792C77.7754 23.904 77.2954 24.096 77.0074 24.368C76.7354 24.624 76.5994 24.984 76.5994 25.448C76.5994 26.056 76.8074 26.552 77.2234 26.936C77.6394 27.304 78.2154 27.488 78.9514 27.488C79.5434 27.488 80.0634 27.352 80.5114 27.08C80.9594 26.792 81.3114 26.408 81.5674 25.928C81.8394 25.448 81.9754 24.896 81.9754 24.272V21.512C81.9754 20.6 81.7834 19.944 81.3994 19.544C81.0154 19.144 80.3834 18.944 79.5034 18.944C78.9914 18.944 78.4554 19.008 77.8954 19.136C77.3514 19.264 76.7834 19.48 76.1914 19.784C75.9194 19.912 75.6874 19.952 75.4954 19.904C75.3034 19.856 75.1514 19.752 75.0394 19.592C74.9274 19.416 74.8634 19.232 74.8474 19.04C74.8474 18.832 74.8954 18.632 74.9914 18.44C75.1034 18.248 75.2874 18.104 75.5434 18.008C76.2474 17.672 76.9434 17.432 77.6314 17.288C78.3194 17.144 78.9674 17.072 79.5754 17.072C80.6474 17.072 81.5274 17.24 82.2154 17.576C82.9194 17.912 83.4394 18.424 83.7754 19.112C84.1114 19.8 84.2794 20.688 84.2794 21.776V27.944C84.2794 28.328 84.1834 28.632 83.9914 28.856C83.7994 29.064 83.5194 29.168 83.1514 29.168C82.7994 29.168 82.5194 29.064 82.3114 28.856C82.1034 28.632 81.9994 28.328 81.9994 27.944V26.384H82.2154C82.0874 26.976 81.8474 27.488 81.4954 27.92C81.1594 28.336 80.7354 28.656 80.2234 28.88C79.7114 29.104 79.1274 29.216 78.4714 29.216ZM88.8421 29.168C88.4421 29.168 88.1381 29.064 87.9301 28.856C87.7221 28.632 87.6181 28.328 87.6181 27.944V18.344C87.6181 17.944 87.7221 17.64 87.9301 17.432C88.1381 17.224 88.4261 17.12 88.7941 17.12C89.1781 17.12 89.4661 17.224 89.6581 17.432C89.8661 17.64 89.9701 17.944 89.9701 18.344V20.096H89.7301C89.9861 19.136 90.4581 18.408 91.1461 17.912C91.8341 17.416 92.7141 17.128 93.7861 17.048C94.0741 17.032 94.2981 17.104 94.4581 17.264C94.6341 17.424 94.7301 17.672 94.7461 18.008C94.7781 18.344 94.7061 18.616 94.5301 18.824C94.3541 19.016 94.0821 19.128 93.7141 19.16L93.2581 19.208C92.2181 19.304 91.4261 19.632 90.8821 20.192C90.3381 20.752 90.0661 21.52 90.0661 22.496V27.944C90.0661 28.328 89.9621 28.632 89.7541 28.856C89.5621 29.064 89.2581 29.168 88.8421 29.168ZM100.198 29.216C99.382 29.216 98.646 29.056 97.99 28.736C97.35 28.416 96.846 27.984 96.478 27.44C96.11 26.896 95.926 26.28 95.926 25.592C95.926 24.728 96.142 24.048 96.574 23.552C97.022 23.04 97.75 22.68 98.758 22.472C99.782 22.248 101.158 22.136 102.886 22.136H104.014V23.624H102.91C101.758 23.624 100.846 23.68 100.174 23.792C99.502 23.904 99.022 24.096 98.734 24.368C98.462 24.624 98.326 24.984 98.326 25.448C98.326 26.056 98.534 26.552 98.95 26.936C99.366 27.304 99.942 27.488 100.678 27.488C101.27 27.488 101.79 27.352 102.238 27.08C102.686 26.792 103.038 26.408 103.294 25.928C103.566 25.448 103.702 24.896 103.702 24.272V21.512C103.702 20.6 103.51 19.944 103.126 19.544C102.742 19.144 102.11 18.944 101.23 18.944C100.718 18.944 100.182 19.008 99.622 19.136C99.078 19.264 98.51 19.48 97.918 19.784C97.646 19.912 97.414 19.952 97.222 19.904C97.03 19.856 96.878 19.752 96.766 19.592C96.654 19.416 96.59 19.232 96.574 19.04C96.574 18.832 96.622 18.632 96.718 18.44C96.83 18.248 97.014 18.104 97.27 18.008C97.974 17.672 98.67 17.432 99.358 17.288C100.046 17.144 100.694 17.072 101.302 17.072C102.374 17.072 103.254 17.24 103.942 17.576C104.646 17.912 105.166 18.424 105.502 19.112C105.838 19.8 106.006 20.688 106.006 21.776V27.944C106.006 28.328 105.91 28.632 105.718 28.856C105.526 29.064 105.246 29.168 104.878 29.168C104.526 29.168 104.246 29.064 104.038 28.856C103.83 28.632 103.726 28.328 103.726 27.944V26.384H103.942C103.814 26.976 103.574 27.488 103.222 27.92C102.886 28.336 102.462 28.656 101.95 28.88C101.438 29.104 100.854 29.216 100.198 29.216ZM113.449 29.216C112.745 29.216 112.017 29.136 111.265 28.976C110.529 28.816 109.849 28.544 109.225 28.16C109.017 28.016 108.873 27.856 108.793 27.68C108.713 27.504 108.681 27.328 108.697 27.152C108.729 26.96 108.801 26.8 108.913 26.672C109.041 26.528 109.193 26.44 109.369 26.408C109.561 26.376 109.761 26.416 109.969 26.528C110.593 26.88 111.193 27.128 111.769 27.272C112.345 27.4 112.913 27.464 113.473 27.464C114.321 27.464 114.961 27.312 115.393 27.008C115.825 26.704 116.041 26.296 116.041 25.784C116.041 25.368 115.897 25.048 115.609 24.824C115.321 24.584 114.889 24.4 114.313 24.272L112.033 23.816C111.041 23.608 110.289 23.24 109.777 22.712C109.265 22.184 109.009 21.512 109.009 20.696C109.009 19.96 109.209 19.32 109.609 18.776C110.009 18.232 110.569 17.816 111.289 17.528C112.009 17.224 112.841 17.072 113.785 17.072C114.489 17.072 115.153 17.16 115.777 17.336C116.401 17.512 116.977 17.776 117.505 18.128C117.713 18.24 117.849 18.392 117.913 18.584C117.977 18.76 117.985 18.936 117.937 19.112C117.905 19.288 117.825 19.448 117.697 19.592C117.569 19.72 117.409 19.8 117.217 19.832C117.041 19.848 116.841 19.8 116.617 19.688C116.137 19.384 115.657 19.168 115.177 19.04C114.713 18.912 114.249 18.848 113.785 18.848C112.937 18.848 112.297 19.008 111.865 19.328C111.449 19.632 111.241 20.048 111.241 20.576C111.241 20.976 111.369 21.304 111.625 21.56C111.881 21.816 112.281 22 112.825 22.112L115.105 22.568C116.145 22.776 116.929 23.128 117.457 23.624C118.001 24.12 118.273 24.792 118.273 25.64C118.273 26.744 117.833 27.616 116.953 28.256C116.073 28.896 114.905 29.216 113.449 29.216ZM124.714 29.216C123.898 29.216 123.162 29.056 122.506 28.736C121.866 28.416 121.362 27.984 120.994 27.44C120.626 26.896 120.442 26.28 120.442 25.592C120.442 24.728 120.658 24.048 121.09 23.552C121.538 23.04 122.266 22.68 123.274 22.472C124.298 22.248 125.674 22.136 127.402 22.136H128.53V23.624H127.426C126.274 23.624 125.362 23.68 124.69 23.792C124.018 23.904 123.538 24.096 123.25 24.368C122.978 24.624 122.842 24.984 122.842 25.448C122.842 26.056 123.05 26.552 123.466 26.936C123.882 27.304 124.458 27.488 125.194 27.488C125.786 27.488 126.306 27.352 126.754 27.08C127.202 26.792 127.554 26.408 127.81 25.928C128.082 25.448 128.218 24.896 128.218 24.272V21.512C128.218 20.6 128.026 19.944 127.642 19.544C127.258 19.144 126.626 18.944 125.746 18.944C125.234 18.944 124.698 19.008 124.138 19.136C123.594 19.264 123.026 19.48 122.434 19.784C122.162 19.912 121.93 19.952 121.738 19.904C121.546 19.856 121.394 19.752 121.282 19.592C121.17 19.416 121.106 19.232 121.09 19.04C121.09 18.832 121.138 18.632 121.234 18.44C121.346 18.248 121.53 18.104 121.786 18.008C122.49 17.672 123.186 17.432 123.874 17.288C124.562 17.144 125.21 17.072 125.818 17.072C126.89 17.072 127.77 17.24 128.458 17.576C129.162 17.912 129.682 18.424 130.018 19.112C130.354 19.8 130.522 20.688 130.522 21.776V27.944C130.522 28.328 130.426 28.632 130.234 28.856C130.042 29.064 129.762 29.168 129.394 29.168C129.042 29.168 128.762 29.064 128.554 28.856C128.346 28.632 128.242 28.328 128.242 27.944V26.384H128.458C128.33 26.976 128.09 27.488 127.738 27.92C127.402 28.336 126.978 28.656 126.466 28.88C125.954 29.104 125.37 29.216 124.714 29.216Z" fill="white"/>
</svg>
