<svg width="133" height="43" viewBox="0 0 133 43" fill="none" xmlns="http://www.w3.org/2000/svg">
<path fill-rule="evenodd" clip-rule="evenodd" d="M27.05 20.0998C28.7897 20.0998 30.2 18.6895 30.2 16.9498C30.2 15.2101 28.7897 13.7998 27.05 13.7998C25.3103 13.7998 23.9 15.2101 23.9 16.9498C23.9 18.6895 25.3103 20.0998 27.05 20.0998Z" fill="#605BFF"/>
<path d="M29.5586 25.9674L35.4035 20.1225C35.4035 16.1145 34.4015 12.2736 32.5646 8.93359L18.9542 21.5419V42.5002H21.5427C30.6441 42.5002 38.0755 35.1523 38.0755 25.9674H29.5586Z" fill="black"/>
<path d="M8.5169 17.0328L2.67197 22.8777C2.67197 26.8857 3.67396 30.7266 5.51093 34.0666L19.1213 21.4582V0.5H16.5328C7.43141 0.5 0 7.84791 0 17.0328H8.5169Z" fill="black"/>
<path d="M58.312 29.5C57.88 29.5 57.544 29.388 57.304 29.164C57.08 28.924 56.968 28.588 56.968 28.156V13.924C56.968 13.492 57.08 13.164 57.304 12.94C57.544 12.7 57.88 12.58 58.312 12.58H62.944C65.728 12.58 67.872 13.308 69.376 14.764C70.896 16.204 71.656 18.292 71.656 21.028C71.656 22.388 71.464 23.596 71.08 24.652C70.696 25.708 70.128 26.596 69.376 27.316C68.64 28.02 67.736 28.564 66.664 28.948C65.592 29.316 64.352 29.5 62.944 29.5H58.312ZM59.464 27.412H62.8C63.856 27.412 64.768 27.284 65.536 27.028C66.32 26.756 66.976 26.356 67.504 25.828C68.032 25.3 68.424 24.636 68.68 23.836C68.936 23.036 69.064 22.1 69.064 21.028C69.064 18.9 68.536 17.308 67.48 16.252C66.44 15.196 64.88 14.668 62.8 14.668H59.464V27.412ZM78.4714 29.716C77.6554 29.716 76.9194 29.556 76.2634 29.236C75.6234 28.916 75.1194 28.484 74.7514 27.94C74.3834 27.396 74.1994 26.78 74.1994 26.092C74.1994 25.228 74.4154 24.548 74.8474 24.052C75.2954 23.54 76.0234 23.18 77.0314 22.972C78.0554 22.748 79.4314 22.636 81.1594 22.636H82.2874V24.124H81.1834C80.0314 24.124 79.1194 24.18 78.4474 24.292C77.7754 24.404 77.2954 24.596 77.0074 24.868C76.7354 25.124 76.5994 25.484 76.5994 25.948C76.5994 26.556 76.8074 27.052 77.2234 27.436C77.6394 27.804 78.2154 27.988 78.9514 27.988C79.5434 27.988 80.0634 27.852 80.5114 27.58C80.9594 27.292 81.3114 26.908 81.5674 26.428C81.8394 25.948 81.9754 25.396 81.9754 24.772V22.012C81.9754 21.1 81.7834 20.444 81.3994 20.044C81.0154 19.644 80.3834 19.444 79.5034 19.444C78.9914 19.444 78.4554 19.508 77.8954 19.636C77.3514 19.764 76.7834 19.98 76.1914 20.284C75.9194 20.412 75.6874 20.452 75.4954 20.404C75.3034 20.356 75.1514 20.252 75.0394 20.092C74.9274 19.916 74.8634 19.732 74.8474 19.54C74.8474 19.332 74.8954 19.132 74.9914 18.94C75.1034 18.748 75.2874 18.604 75.5434 18.508C76.2474 18.172 76.9434 17.932 77.6314 17.788C78.3194 17.644 78.9674 17.572 79.5754 17.572C80.6474 17.572 81.5274 17.74 82.2154 18.076C82.9194 18.412 83.4394 18.924 83.7754 19.612C84.1114 20.3 84.2794 21.188 84.2794 22.276V28.444C84.2794 28.828 84.1834 29.132 83.9914 29.356C83.7994 29.564 83.5194 29.668 83.1514 29.668C82.7994 29.668 82.5194 29.564 82.3114 29.356C82.1034 29.132 81.9994 28.828 81.9994 28.444V26.884H82.2154C82.0874 27.476 81.8474 27.988 81.4954 28.42C81.1594 28.836 80.7354 29.156 80.2234 29.38C79.7114 29.604 79.1274 29.716 78.4714 29.716ZM88.8421 29.668C88.4421 29.668 88.1381 29.564 87.9301 29.356C87.7221 29.132 87.6181 28.828 87.6181 28.444V18.844C87.6181 18.444 87.7221 18.14 87.9301 17.932C88.1381 17.724 88.4261 17.62 88.7941 17.62C89.1781 17.62 89.4661 17.724 89.6581 17.932C89.8661 18.14 89.9701 18.444 89.9701 18.844V20.596H89.7301C89.9861 19.636 90.4581 18.908 91.1461 18.412C91.8341 17.916 92.7141 17.628 93.7861 17.548C94.0741 17.532 94.2981 17.604 94.4581 17.764C94.6341 17.924 94.7301 18.172 94.7461 18.508C94.7781 18.844 94.7061 19.116 94.5301 19.324C94.3541 19.516 94.0821 19.628 93.7141 19.66L93.2581 19.708C92.2181 19.804 91.4261 20.132 90.8821 20.692C90.3381 21.252 90.0661 22.02 90.0661 22.996V28.444C90.0661 28.828 89.9621 29.132 89.7541 29.356C89.5621 29.564 89.2581 29.668 88.8421 29.668ZM100.198 29.716C99.382 29.716 98.646 29.556 97.99 29.236C97.35 28.916 96.846 28.484 96.478 27.94C96.11 27.396 95.926 26.78 95.926 26.092C95.926 25.228 96.142 24.548 96.574 24.052C97.022 23.54 97.75 23.18 98.758 22.972C99.782 22.748 101.158 22.636 102.886 22.636H104.014V24.124H102.91C101.758 24.124 100.846 24.18 100.174 24.292C99.502 24.404 99.022 24.596 98.734 24.868C98.462 25.124 98.326 25.484 98.326 25.948C98.326 26.556 98.534 27.052 98.95 27.436C99.366 27.804 99.942 27.988 100.678 27.988C101.27 27.988 101.79 27.852 102.238 27.58C102.686 27.292 103.038 26.908 103.294 26.428C103.566 25.948 103.702 25.396 103.702 24.772V22.012C103.702 21.1 103.51 20.444 103.126 20.044C102.742 19.644 102.11 19.444 101.23 19.444C100.718 19.444 100.182 19.508 99.622 19.636C99.078 19.764 98.51 19.98 97.918 20.284C97.646 20.412 97.414 20.452 97.222 20.404C97.03 20.356 96.878 20.252 96.766 20.092C96.654 19.916 96.59 19.732 96.574 19.54C96.574 19.332 96.622 19.132 96.718 18.94C96.83 18.748 97.014 18.604 97.27 18.508C97.974 18.172 98.67 17.932 99.358 17.788C100.046 17.644 100.694 17.572 101.302 17.572C102.374 17.572 103.254 17.74 103.942 18.076C104.646 18.412 105.166 18.924 105.502 19.612C105.838 20.3 106.006 21.188 106.006 22.276V28.444C106.006 28.828 105.91 29.132 105.718 29.356C105.526 29.564 105.246 29.668 104.878 29.668C104.526 29.668 104.246 29.564 104.038 29.356C103.83 29.132 103.726 28.828 103.726 28.444V26.884H103.942C103.814 27.476 103.574 27.988 103.222 28.42C102.886 28.836 102.462 29.156 101.95 29.38C101.438 29.604 100.854 29.716 100.198 29.716ZM113.449 29.716C112.745 29.716 112.017 29.636 111.265 29.476C110.529 29.316 109.849 29.044 109.225 28.66C109.017 28.516 108.873 28.356 108.793 28.18C108.713 28.004 108.681 27.828 108.697 27.652C108.729 27.46 108.801 27.3 108.913 27.172C109.041 27.028 109.193 26.94 109.369 26.908C109.561 26.876 109.761 26.916 109.969 27.028C110.593 27.38 111.193 27.628 111.769 27.772C112.345 27.9 112.913 27.964 113.473 27.964C114.321 27.964 114.961 27.812 115.393 27.508C115.825 27.204 116.041 26.796 116.041 26.284C116.041 25.868 115.897 25.548 115.609 25.324C115.321 25.084 114.889 24.9 114.313 24.772L112.033 24.316C111.041 24.108 110.289 23.74 109.777 23.212C109.265 22.684 109.009 22.012 109.009 21.196C109.009 20.46 109.209 19.82 109.609 19.276C110.009 18.732 110.569 18.316 111.289 18.028C112.009 17.724 112.841 17.572 113.785 17.572C114.489 17.572 115.153 17.66 115.777 17.836C116.401 18.012 116.977 18.276 117.505 18.628C117.713 18.74 117.849 18.892 117.913 19.084C117.977 19.26 117.985 19.436 117.937 19.612C117.905 19.788 117.825 19.948 117.697 20.092C117.569 20.22 117.409 20.3 117.217 20.332C117.041 20.348 116.841 20.3 116.617 20.188C116.137 19.884 115.657 19.668 115.177 19.54C114.713 19.412 114.249 19.348 113.785 19.348C112.937 19.348 112.297 19.508 111.865 19.828C111.449 20.132 111.241 20.548 111.241 21.076C111.241 21.476 111.369 21.804 111.625 22.06C111.881 22.316 112.281 22.5 112.825 22.612L115.105 23.068C116.145 23.276 116.929 23.628 117.457 24.124C118.001 24.62 118.273 25.292 118.273 26.14C118.273 27.244 117.833 28.116 116.953 28.756C116.073 29.396 114.905 29.716 113.449 29.716ZM124.714 29.716C123.898 29.716 123.162 29.556 122.506 29.236C121.866 28.916 121.362 28.484 120.994 27.94C120.626 27.396 120.442 26.78 120.442 26.092C120.442 25.228 120.658 24.548 121.09 24.052C121.538 23.54 122.266 23.18 123.274 22.972C124.298 22.748 125.674 22.636 127.402 22.636H128.53V24.124H127.426C126.274 24.124 125.362 24.18 124.69 24.292C124.018 24.404 123.538 24.596 123.25 24.868C122.978 25.124 122.842 25.484 122.842 25.948C122.842 26.556 123.05 27.052 123.466 27.436C123.882 27.804 124.458 27.988 125.194 27.988C125.786 27.988 126.306 27.852 126.754 27.58C127.202 27.292 127.554 26.908 127.81 26.428C128.082 25.948 128.218 25.396 128.218 24.772V22.012C128.218 21.1 128.026 20.444 127.642 20.044C127.258 19.644 126.626 19.444 125.746 19.444C125.234 19.444 124.698 19.508 124.138 19.636C123.594 19.764 123.026 19.98 122.434 20.284C122.162 20.412 121.93 20.452 121.738 20.404C121.546 20.356 121.394 20.252 121.282 20.092C121.17 19.916 121.106 19.732 121.09 19.54C121.09 19.332 121.138 19.132 121.234 18.94C121.346 18.748 121.53 18.604 121.786 18.508C122.49 18.172 123.186 17.932 123.874 17.788C124.562 17.644 125.21 17.572 125.818 17.572C126.89 17.572 127.77 17.74 128.458 18.076C129.162 18.412 129.682 18.924 130.018 19.612C130.354 20.3 130.522 21.188 130.522 22.276V28.444C130.522 28.828 130.426 29.132 130.234 29.356C130.042 29.564 129.762 29.668 129.394 29.668C129.042 29.668 128.762 29.564 128.554 29.356C128.346 29.132 128.242 28.828 128.242 28.444V26.884H128.458C128.33 27.476 128.09 27.988 127.738 28.42C127.402 28.836 126.978 29.156 126.466 29.38C125.954 29.604 125.37 29.716 124.714 29.716Z" fill="black"/>
</svg>
