<svg width="20" height="20" viewBox="0 0 20 20" fill="none" xmlns="http://www.w3.org/2000/svg">
<path d="M9.70332 1.3249C9.79448 1.27574 9.89642 1.25 9.99999 1.25C10.1036 1.25 10.2055 1.27574 10.2967 1.3249L18.4217 5.6999C18.5209 5.75345 18.6038 5.83285 18.6615 5.92967C18.7193 6.0265 18.7498 6.13715 18.7498 6.2499C18.7498 6.36265 18.7193 6.4733 18.6615 6.57012C18.6038 6.66695 18.5209 6.74634 18.4217 6.7999L10.2967 11.1749C10.2055 11.2241 10.1036 11.2498 9.99999 11.2498C9.89642 11.2498 9.79448 11.2241 9.70332 11.1749L1.57832 6.7999C1.4791 6.74634 1.39622 6.66695 1.33845 6.57012C1.28068 6.4733 1.25018 6.36265 1.25018 6.2499C1.25018 6.13715 1.28068 6.0265 1.33845 5.92967C1.39622 5.83285 1.4791 5.75345 1.57832 5.6999L9.70332 1.3249Z" fill="white"/>
<path d="M2.72085 8.83482L9.11084 12.2757C9.38411 12.4228 9.68963 12.4999 10 12.4999C10.3104 12.4999 10.6159 12.4228 10.8892 12.2757L17.2792 8.83398L18.4208 9.44982C18.5201 9.50337 18.6029 9.58277 18.6607 9.67959C18.7185 9.77642 18.749 9.88707 18.749 9.99982C18.749 10.1126 18.7185 10.2232 18.6607 10.32C18.6029 10.4169 18.5201 10.4963 18.4208 10.5498L10.2958 14.9248C10.2049 14.9737 10.1033 14.9993 10 14.9993C9.89676 14.9993 9.79513 14.9737 9.70418 14.9248L1.57918 10.5498C1.47996 10.4963 1.39707 10.4169 1.33931 10.32C1.28154 10.2232 1.25104 10.1126 1.25104 9.99982C1.25104 9.88707 1.28154 9.77642 1.33931 9.67959C1.39707 9.58277 1.47996 9.50337 1.57918 9.44982L2.72085 8.83482Z" fill="white"/>
<path d="M9.11084 16.0257L2.72085 12.584L1.57918 13.1998C1.47996 13.2534 1.39707 13.3328 1.33931 13.4296C1.28154 13.5264 1.25104 13.6371 1.25104 13.7498C1.25104 13.8626 1.28154 13.9732 1.33931 14.07C1.39707 14.1669 1.47996 14.2463 1.57918 14.2998L9.70418 18.6748C9.88835 18.7748 10.1117 18.7748 10.2958 18.6748L18.4208 14.2998C18.5201 14.2463 18.6029 14.1669 18.6607 14.07C18.7185 13.9732 18.749 13.8626 18.749 13.7498C18.749 13.6371 18.7185 13.5264 18.6607 13.4296C18.6029 13.3328 18.5201 13.2534 18.4208 13.1998L17.2792 12.5848L10.8892 16.0265C10.6158 16.1735 10.3103 16.2505 9.99991 16.2503C9.68953 16.2502 9.38404 16.173 9.11084 16.0257Z" fill="white"/>
</svg>
