<svg width="60" height="60" viewBox="0 0 60 60" fill="none" xmlns="http://www.w3.org/2000/svg">
<rect opacity="0.2" width="60" height="60" rx="30" fill="#FFD66B"/>
<path fill-rule="evenodd" clip-rule="evenodd" d="M34.1656 24.0825C34.5639 24.0868 34.963 24.0912 35.3636 24.0944C39.6675 24.0944 42.8055 26.5222 42.8055 29.8748V34.1811C42.8055 37.5337 39.6675 39.9615 35.3636 39.9615C33.6396 39.9904 31.9155 40 30.1791 40C28.4426 40 26.6938 39.9904 24.9697 39.9615C20.6658 39.9615 17.5278 37.5337 17.5278 34.1811V29.8748C17.5278 26.5222 20.6658 24.0944 24.9821 24.0944C26.6069 24.0751 28.269 24.0559 29.9558 24.0559V23.8921C29.9558 23.2274 29.2488 22.6879 28.4054 22.6879H27.1775C25.7759 22.6879 24.6348 21.8015 24.6348 20.7225C24.6348 20.3276 25.0565 20 25.5651 20C26.086 20 26.4953 20.3276 26.4953 20.7225C26.4953 21.0116 26.8054 21.2428 27.1775 21.2428H28.4054C30.2783 21.2524 31.8039 22.4374 31.8163 23.8825V24.0655C32.5982 24.0655 33.3801 24.074 34.1656 24.0825ZM28.7155 32.7457H27.4131V33.7669C27.4131 34.1618 26.9914 34.4894 26.4829 34.4894C25.962 34.4894 25.5527 34.1618 25.5527 33.7669V32.7457H24.2379C23.7294 32.7457 23.3077 32.4277 23.3077 32.0231C23.3077 31.6281 23.7294 31.3006 24.2379 31.3006H25.5527V30.289C25.5527 29.894 25.962 29.5665 26.4829 29.5665C26.9914 29.5665 27.4131 29.894 27.4131 30.289V31.3006H28.7155C29.224 31.3006 29.6457 31.6281 29.6457 32.0231C29.6457 32.4277 29.224 32.7457 28.7155 32.7457ZM33.9869 31.1175H34.1109C34.6194 31.1175 35.0411 30.7996 35.0411 30.395C35.0411 30 34.6194 29.6724 34.1109 29.6724H33.9869C33.4659 29.6724 33.0566 30 33.0566 30.395C33.0566 30.7996 33.4659 31.1175 33.9869 31.1175ZM36.1078 34.4316H36.2318C36.7404 34.4316 37.1621 34.1137 37.1621 33.7091C37.1621 33.3141 36.7404 32.9865 36.2318 32.9865H36.1078C35.5856 32.9865 35.1776 33.3141 35.1776 33.7091C35.1776 34.1137 35.5856 34.4316 36.1078 34.4316Z" fill="#FFC327"/>
</svg>
