<svg width="20" height="20" viewBox="0 0 20 20" fill="none" xmlns="http://www.w3.org/2000/svg">
<path d="M9.2301 5.16162V1.1526C9.2301 0.726323 9.5701 0.371094 10.0001 0.371094C10.3851 0.371094 10.7113 0.669585 10.763 1.04767L10.7701 1.1526V5.16162L15.55 5.16192C17.93 5.16192 19.8853 7.11088 19.9951 9.5415L20 9.75718V14.7965C20 17.2441 18.1127 19.2533 15.768 19.3661L15.56 19.3711H4.44C2.06 19.3711 0.11409 17.4319 0.00483778 14.9923L0 14.7758L0 9.74686C0 7.2992 1.87791 5.28031 4.22199 5.16694L4.43 5.16192H9.23V11.5643L7.63 9.91208C7.33 9.60229 6.84 9.60229 6.54 9.91208C6.39 10.067 6.32 10.2735 6.32 10.48C6.32 10.637 6.3648 10.8006 6.45952 10.939L6.54 11.0377L9.45 14.053C9.59 14.2079 9.79 14.2905 10 14.2905C10.1667 14.2905 10.3333 14.2331 10.4653 14.1244L10.54 14.053L13.45 11.0377C13.75 10.7279 13.75 10.2219 13.45 9.91208C13.1773 9.63045 12.7475 9.60485 12.4462 9.83527L12.36 9.91208L10.77 11.5643V5.16192L9.2301 5.16162Z" fill="white"/>
</svg>
